HIERARCHY
ROOT Hips
{
    OFFSET 0.000000 0.000000 0.000000
    CHANNELS 6 Xposition Yposition Zposition Zrotation Xrotation Yrotation
    JOINT Spine
    {
        OFFSET -0.000000 7.236184 0.000000
        CHANNELS 3 Zrotation Xrotation Yrotation
        JOINT Spine1
        {
            OFFSET -0.000000 20.420147 0.000000
            CHANNELS 3 Zrotation Xrotation Yrotation
            JOINT Neck
            {
                OFFSET -0.000000 20.336288 1.848754
                CHANNELS 3 Zrotation Xrotation Yrotation
                JOINT Head
                {
                    OFFSET -0.000000 12.354461 -1.764923
                    CHANNELS 3 Zrotation Xrotation Yrotation
                    End Site
                    {
                        OFFSET -0.000000 22.061537 0.000000
                    }
                }
            }
            JOINT LeftShoulder
            {
                OFFSET 3.573296 18.396038 -0.314103
                CHANNELS 3 Zrotation Xrotation Yrotation
                JOINT LeftArm
                {
                    OFFSET 10.880760 0.000000 0.000000
                    CHANNELS 3 Zrotation Xrotation Yrotation
                    JOINT LeftForeArm
                    {
                        OFFSET 27.185530 0.000000 0.000000
                        CHANNELS 3 Zrotation Xrotation Yrotation
                        JOINT LeftHand
                        {
                            OFFSET 27.825975 0.000000 0.000000
                            CHANNELS 3 Zrotation Xrotation Yrotation
                            End Site
                            {
                                OFFSET 13.236923 0.000000 0.000000
                            }
                        }
                    }
                }
            }
            JOINT RightShoulder
            {
                OFFSET -3.474926 18.396038 -0.314103
                CHANNELS 3 Zrotation Xrotation Yrotation
                JOINT RightArm
                {
                    OFFSET -10.880760 0.000000 0.000000
                    CHANNELS 3 Zrotation Xrotation Yrotation
                    JOINT RightForeArm
                    {
                        OFFSET -27.185530 0.000000 0.000000
                        CHANNELS 3 Zrotation Xrotation Yrotation
                        JOINT RightHand
                        {
                            OFFSET -27.825975 0.000000 0.000000
                            CHANNELS 3 Zrotation Xrotation Yrotation
                            End Site
                            {
                                OFFSET -13.236923 0.000000 0.000000
                            }
                        }
                    }
                }
            }
        }
    }
    JOINT LeftUpLeg
    {
        OFFSET 8.824615 0.000000 0.000000
        CHANNELS 3 Zrotation Xrotation Yrotation
        JOINT LeftLeg
        {
            OFFSET -0.000000 -35.111282 0.000000
            CHANNELS 3 Zrotation Xrotation Yrotation
            JOINT LeftFoot
            {
                OFFSET -0.000000 -42.324711 0.000000
                CHANNELS 3 Zrotation Xrotation Yrotation
                JOINT LeftToeBase
                {
                    OFFSET -0.000000 -5.735999 13.236923
                    CHANNELS 3 Zrotation Xrotation Yrotation
                    End Site
                    {
                        OFFSET -0.000000 0.000000 3.529846
                    }
                }
            }
        }
    }
    JOINT RightUpLeg
    {
        OFFSET -8.824615 0.000000 0.000000
        CHANNELS 3 Zrotation Xrotation Yrotation
        JOINT RightLeg
        {
            OFFSET -0.000000 -35.111282 0.000000
            CHANNELS 3 Zrotation Xrotation Yrotation
            JOINT RightFoot
            {
                OFFSET -0.000000 -42.324711 0.000000
                CHANNELS 3 Zrotation Xrotation Yrotation
                JOINT RightToeBase
                {
                    OFFSET -0.000000 -5.735999 13.236923
                    CHANNELS 3 Zrotation Xrotation Yrotation
                    End Site
                    {
                        OFFSET -0.000000 0.000000 3.529846
                    }
                }
            }
        }
    }
}
MOTION
Frames:    4
Frame Time:    0.008333
-6.871706    81.881393    100.559616    0.103524    -11.845463    -175.009995    -2.403038    -9.221243    1.860057    -2.955711    9.393927    2.296820    -1.051425    4.325327    -10.515155    16.664970    -21.676815    -5.394878    3.710858    7.913686    -12.534370    -31.248207    20.751356    -66.469681    27.042522    -2.027501    -33.250141    10.012676    6.162254    -0.452821    0.268245    10.453231    7.958086    32.962654    16.955900    60.601810    -29.181461    -8.215771    35.847561    -10.690396    1.260646    1.780770    2.945476    -18.162256    -2.089853    0.065871    19.020899    -2.456730    -5.466670    -9.018968    -8.927607    -0.055365    -1.144229    0.061498    -7.243148    -11.214198    -2.109488    2.328418    9.629651    3.200256    2.051165    -5.948647    -10.981613    -2.227456    -0.492519    2.410750    
-6.716000    81.879028    100.568367    0.037701    -11.844022    -175.061020    -2.303766    -9.271446    1.849023    -2.888406    9.456322    2.274807    -1.183769    4.255433    -10.244693    15.967437    -21.689079    -5.324572    3.654649    8.006957    -12.530537    -31.319891    20.761448    -66.381287    26.922346    -1.959914    -32.996464    10.046429    6.117228    -0.546255    0.343632    10.558316    7.924040    32.815735    17.162054    60.626965    -29.314070    -8.192894    35.984169    -11.196366    1.349790    1.902236    3.016609    -18.132797    -1.998607    0.068936    18.959856    -2.518518    -5.548767    -8.976435    -8.890533    -0.042277    -1.144606    0.046960    -7.195877    -11.239819    -2.051802    2.338920    9.654387    3.267022    1.958606    -6.006803    -11.056855    -2.254699    -0.430054    2.440023    
-6.560388    81.877686    100.574890    -0.026425    -11.850142    -175.106537    -2.201498    -9.322823    1.832111    -2.815681    9.504751    2.245799    -1.310417    4.195200    -9.961605    15.233523    -21.702814    -5.253436    3.600337    8.108848    -12.496100    -31.405401    20.788105    -66.186928    26.850349    -1.927260    -32.860844    10.100381    6.084539    -0.628152    0.419152    10.667676    7.854599    32.654217    17.407660    60.576523    -29.466139    -8.202409    36.244278    -11.650655    1.452134    1.998439    3.087638    -18.106867    -1.913473    0.071385    18.892191    -2.579059    -5.630114    -8.929634    -8.853481    -0.030809    -1.147849    0.034222    -7.149147    -11.264195    -1.995492    2.351321    9.667482    3.325692    1.867944    -6.058529    -11.127565    -2.281494    -0.369491    2.468813    
-6.404358    81.877388    100.579071    -0.089672    -11.863036    -175.147675    -2.095865    -9.375567    1.809572    -2.737478    9.540238    2.209939    -1.430175    4.144077    -9.664371    14.457010    -21.717659    -5.182150    3.546488    8.220413    -12.431273    -31.503403    20.830044    -65.886826    26.825483    -1.928182    -32.841297    10.173654    6.064198    -0.698365    0.495846    10.781187    7.751106    32.476078    17.691835    60.450447    -29.634834    -8.247980    36.626923    -12.053752    1.563969    2.069770    3.158520    -18.082735    -1.834159    0.072853    18.816620    -2.635939    -5.711456    -8.877987    -8.818134    -0.021382    -1.153694    0.023750    -7.103204    -11.286653    -1.940319    2.365626    9.669037    3.377647    1.778675    -6.104260    -11.194399    -2.307927    -0.310525    2.497212    
